<svg width="917" height="519" viewBox="0 0 917 519" fill="none" xmlns="http://www.w3.org/2000/svg">
<g clip-path="url(#clip0_22_106)">
<path d="M134.346 48.1123C260.889 1.21325 389.509 42.6786 476.726 132.986C563.942 223.293 747.013 70.6526 844.098 160.814C910.354 222.345 880.007 380.544 789.157 449.068C665.675 542.197 290.143 494.939 208.899 479.091C115.31 460.829 46.8917 405.429 19.0936 338.188C-47.8784 176.169 78.4269 68.8526 134.346 48.1123Z" fill="#E7F3FE"/>
<path d="M566.869 113.267C567.306 109.402 567.525 105.515 567.527 101.625C567.527 99.548 567.457 97.4864 567.338 95.44L548.065 89.2249C546.901 81.256 544.602 73.494 541.24 66.1737L554.032 50.4748C551.086 45.2971 547.699 40.3816 543.911 35.7824L524.634 42.0614C518.996 36.3047 512.571 31.3717 505.55 27.4085L506.647 7.19115C501.221 4.72445 495.592 2.73244 489.822 1.23755L477.92 17.6358C469.969 16.2965 461.869 16.0846 453.858 17.0064L442.839 0C436.997 1.18691 431.269 2.87673 425.719 5.05053L425.744 25.2982C418.524 28.8827 411.848 33.4677 405.913 38.9173L387.005 31.6198C382.974 36.0157 379.328 40.7491 376.108 45.7679L388.041 62.1236C384.293 69.256 381.585 76.8859 379.997 84.7825L360.425 89.9821C359.989 93.8477 359.769 97.7346 359.768 101.625C359.768 103.701 359.838 105.763 359.956 107.809L379.23 114.037C380.395 122.005 382.693 129.767 386.055 137.088L373.263 152.787C376.209 157.964 379.595 162.88 383.384 167.479L402.66 161.2C408.299 166.952 414.723 171.881 421.742 175.841L420.645 196.058C426.07 198.525 431.699 200.517 437.47 202.012L449.381 185.614C457.332 186.953 465.432 187.165 473.442 186.243L484.462 203.249C490.307 202.063 496.038 200.373 501.591 198.199L501.566 177.951C508.784 174.366 515.457 169.78 521.388 164.329L540.295 171.627C544.324 167.234 547.968 162.505 551.187 157.491L539.254 141.135C543.003 134.003 545.711 126.373 547.298 118.476L566.869 113.267ZM463.647 142.3C455.588 142.3 447.71 139.915 441.009 135.445C434.308 130.976 429.085 124.623 426.001 117.19C422.917 109.757 422.11 101.578 423.682 93.6866C425.254 85.7956 429.134 78.5472 434.833 72.8581C440.531 67.169 447.792 63.2948 455.696 61.7253C463.6 60.1558 471.793 60.9616 479.238 64.0408C486.684 67.12 493.047 72.3343 497.524 79.0242C502.001 85.7141 504.39 93.5791 504.39 101.625C504.39 112.412 500.097 122.758 492.457 130.386C484.816 138.014 474.453 142.3 463.647 142.3Z" fill="#9EC8FF"/>
<path d="M519.216 148.016C518.926 148.016 518.643 147.933 518.399 147.778C518.155 147.623 517.96 147.402 517.837 147.14C517.714 146.879 517.669 146.588 517.706 146.301C517.743 146.015 517.861 145.745 518.046 145.523C525.594 136.441 530.676 125.574 532.803 113.965C534.93 102.357 534.031 90.3977 530.192 79.2363C530.121 79.0462 530.088 78.8437 530.097 78.6409C530.105 78.438 530.154 78.2388 530.241 78.0551C530.327 77.8715 530.45 77.7069 530.601 77.5713C530.752 77.4357 530.929 77.3317 531.122 77.2655C531.314 77.1993 531.518 77.1722 531.72 77.1858C531.923 77.1994 532.121 77.2535 532.303 77.3448C532.485 77.4361 532.646 77.5628 532.778 77.7174C532.91 77.872 533.009 78.0515 533.071 78.2451C537.079 89.8998 538.019 102.388 535.798 114.51C533.577 126.632 528.27 137.979 520.388 147.463C520.246 147.635 520.067 147.774 519.864 147.87C519.661 147.966 519.44 148.016 519.216 148.016Z" fill="white"/>
<path d="M513.317 52.0104C512.929 52.0098 512.557 51.8619 512.275 51.5968C505.46 45.1707 497.396 40.2103 488.583 37.023C488.395 36.9547 488.222 36.8501 488.074 36.7152C487.927 36.5803 487.807 36.4177 487.723 36.2367C487.552 35.8712 487.534 35.4529 487.672 35.0739C487.81 34.6949 488.093 34.3862 488.459 34.2157C488.826 34.0452 489.245 34.0269 489.624 34.1648C498.827 37.496 507.247 42.6789 514.361 49.3924C514.584 49.6012 514.738 49.8719 514.804 50.1692C514.87 50.4666 514.845 50.777 514.733 51.0601C514.62 51.3433 514.425 51.5861 514.172 51.7572C513.92 51.9282 513.622 52.0196 513.317 52.0195V52.0104Z" fill="white"/>
<path d="M447.843 35.0557C447.471 35.056 447.112 34.9206 446.833 34.675C446.555 34.4294 446.376 34.0905 446.33 33.7223C446.284 33.354 446.375 32.9817 446.585 32.6757C446.795 32.3696 447.11 32.1509 447.471 32.0607C453.239 30.6122 459.164 29.8809 465.112 29.8836C465.516 29.8836 465.903 30.0437 466.189 30.3288C466.474 30.614 466.635 31.0007 466.635 31.4039C466.635 31.8071 466.474 32.1938 466.189 32.4789C465.903 32.764 465.516 32.9242 465.112 32.9242C459.415 32.9218 453.739 33.6224 448.214 35.0101C448.093 35.0401 447.968 35.0554 447.843 35.0557Z" fill="white"/>
<path d="M239.399 370.823C239.701 368.146 239.852 365.453 239.852 362.759C239.852 361.32 239.809 359.892 239.721 358.475L226.375 354.163C225.568 348.643 223.977 343.265 221.648 338.194L230.499 327.308C228.46 323.723 226.117 320.319 223.494 317.134L210.142 321.482C206.237 317.497 201.788 314.083 196.926 311.342L197.685 297.336C193.927 295.629 190.028 294.249 186.032 293.213L177.787 304.57C172.28 303.644 166.669 303.498 161.121 304.135L153.488 292.356C149.443 293.18 145.476 294.351 141.631 295.856L141.65 309.879C136.65 312.36 132.025 315.534 127.914 319.305L114.817 314.261C112.026 317.303 109.502 320.578 107.273 324.052L115.539 335.378C112.943 340.319 111.066 345.604 109.965 351.074L96.4089 354.674C96.1083 357.353 95.9568 360.046 95.9551 362.741C95.9551 364.179 96.0038 365.608 96.086 367.025L109.435 371.337C110.242 376.856 111.834 382.233 114.162 387.303L105.311 398.177C107.35 401.763 109.694 405.168 112.317 408.354L125.666 404.003C129.572 407.988 134.022 411.403 138.884 414.146L138.123 428.133C141.881 429.843 145.781 431.222 149.779 432.256L158.036 420.933C161.3 421.483 164.605 421.76 167.916 421.76C170.183 421.758 172.449 421.628 174.702 421.371L182.334 433.147C186.38 432.326 190.348 431.156 194.191 429.65V415.624C199.192 413.144 203.816 409.97 207.927 406.198L221.024 411.242C223.813 408.201 226.336 404.927 228.565 401.454L220.302 390.125C222.887 385.186 224.752 379.904 225.842 374.438L239.399 370.823ZM167.901 390.934C162.319 390.934 156.863 389.281 152.222 386.186C147.581 383.09 143.963 378.689 141.827 373.541C139.691 368.393 139.133 362.728 140.221 357.263C141.31 351.797 143.998 346.777 147.945 342.837C151.892 338.896 156.92 336.213 162.395 335.126C167.869 334.039 173.544 334.597 178.701 336.729C183.857 338.862 188.265 342.473 191.366 347.106C194.467 351.739 196.122 357.187 196.122 362.759C196.121 370.231 193.148 377.397 187.855 382.681C182.563 387.964 175.385 390.933 167.901 390.934Z" fill="#9EC8FF"/>
<path d="M206.392 395.358C206.103 395.358 205.82 395.275 205.576 395.12C205.331 394.965 205.137 394.744 205.014 394.482C204.891 394.221 204.846 393.93 204.883 393.643C204.92 393.357 205.038 393.087 205.223 392.865C210.397 386.635 213.881 379.183 215.339 371.223C216.798 363.262 216.183 355.061 213.553 347.407C213.433 347.029 213.466 346.619 213.645 346.265C213.823 345.912 214.133 345.641 214.508 345.512C214.884 345.383 215.295 345.405 215.654 345.574C216.013 345.742 216.292 346.044 216.431 346.416C219.232 354.564 219.888 363.295 218.335 371.77C216.783 380.245 213.074 388.179 207.565 394.811C207.422 394.982 207.243 395.12 207.04 395.215C206.837 395.309 206.616 395.358 206.392 395.358Z" fill="white"/>
<path d="M202.305 328.862C201.918 328.861 201.545 328.713 201.263 328.448C196.59 324.041 191.059 320.639 185.014 318.454C184.639 318.313 184.334 318.03 184.166 317.667C183.998 317.303 183.981 316.888 184.118 316.512C184.254 316.135 184.534 315.828 184.897 315.657C185.259 315.485 185.674 315.463 186.053 315.595C192.488 317.922 198.375 321.545 203.349 326.238C203.573 326.446 203.728 326.717 203.795 327.015C203.862 327.313 203.837 327.624 203.724 327.908C203.612 328.192 203.416 328.435 203.163 328.606C202.91 328.778 202.611 328.869 202.305 328.868V328.862Z" fill="white"/>
<path d="M156.954 317.119C156.582 317.119 156.223 316.984 155.945 316.738C155.666 316.493 155.487 316.154 155.441 315.785C155.396 315.417 155.486 315.045 155.697 314.739C155.907 314.433 156.222 314.214 156.582 314.124C160.616 313.112 164.759 312.601 168.917 312.604C169.321 312.604 169.709 312.764 169.994 313.049C170.28 313.334 170.44 313.721 170.44 314.124C170.44 314.527 170.28 314.914 169.994 315.199C169.709 315.484 169.321 315.644 168.917 315.644C165.01 315.642 161.118 316.122 157.329 317.073C157.206 317.105 157.08 317.12 156.954 317.119Z" fill="white"/>
<path d="M629.077 190.734C629.077 189.95 629.056 189.169 629.013 188.393L639.015 180.375C638.241 176.427 637.022 172.579 635.382 168.905L622.468 167.929C619.531 163.307 615.736 159.288 611.287 156.089L611.245 143.239C607.611 141.335 603.769 139.855 599.796 138.83L590.963 148.314C585.642 147.734 580.259 148.155 575.092 149.555L564.971 141.555C561.181 143.202 557.593 145.282 554.281 147.751L556.197 160.489C552.395 164.265 549.337 168.719 547.181 173.621L534.59 176.537C533.508 180.492 532.883 184.558 532.729 188.654L543.819 195.04C544.37 200.512 545.982 205.826 548.564 210.684L543.012 222.308C545.391 225.558 548.128 228.531 551.171 231.172L563.049 226.523C567.808 229.622 573.14 231.738 578.732 232.744L584.336 244.265C585.003 244.289 585.673 244.307 586.349 244.307C589.647 244.304 592.938 243.999 596.181 243.395L599.966 231.19C605.411 229.36 610.429 226.452 614.72 222.64L627.207 225.443C629.782 222.426 632.015 219.135 633.865 215.628L626.619 205.004C628.249 200.422 629.08 195.596 629.077 190.734ZM585.868 209.535C582.307 209.535 578.826 208.48 575.866 206.505C572.905 204.531 570.598 201.723 569.235 198.439C567.872 195.155 567.516 191.541 568.211 188.055C568.905 184.568 570.62 181.366 573.138 178.852C575.655 176.339 578.863 174.627 582.356 173.933C585.848 173.24 589.468 173.596 592.757 174.956C596.047 176.316 598.859 178.62 600.837 181.576C602.815 184.531 603.871 188.006 603.871 191.561C603.871 193.921 603.405 196.259 602.501 198.439C601.596 200.62 600.27 202.601 598.598 204.27C596.926 205.939 594.942 207.263 592.757 208.166C590.573 209.07 588.232 209.535 585.868 209.535Z" fill="#9EC8FF"/>
<g opacity="0.8">
<path d="M795.501 87.1938H780.029C777.156 87.1906 774.401 86.0497 772.37 84.0215C770.338 81.9934 769.196 79.2435 769.192 76.3752V60.9286C769.196 58.0609 770.339 55.3118 772.371 53.2842C774.402 51.2567 777.156 50.1163 780.029 50.113H795.501C798.374 50.1163 801.128 51.2567 803.159 53.2842C805.191 55.3118 806.334 58.0609 806.338 60.9286V76.3752C806.335 79.2435 805.192 81.9934 803.16 84.0215C801.129 86.0497 798.374 87.1906 795.501 87.1938ZM780.029 54.37C778.287 54.3716 776.616 55.063 775.384 56.2925C774.152 57.5221 773.459 59.1894 773.456 60.9286V76.3752C773.458 78.1149 774.151 79.783 775.383 81.0132C776.615 82.2434 778.286 82.9353 780.029 82.9369H795.501C797.244 82.9353 798.915 82.2434 800.147 81.0132C801.379 79.783 802.072 78.1149 802.074 76.3752V60.9286C802.071 59.1894 801.378 57.5221 800.146 56.2925C798.914 55.063 797.243 54.3716 795.501 54.37H780.029Z" fill="#9EC8FF"/>
</g>
<g opacity="0.8">
<path d="M722.691 87.1938H707.215C704.343 87.1898 701.589 86.0486 699.558 84.0205C697.527 81.9924 696.385 79.2429 696.382 76.3752V60.9286C696.385 58.0612 697.527 55.312 699.558 53.2844C701.589 51.2568 704.343 50.1163 707.215 50.113H722.691C725.563 50.1163 728.317 51.2568 730.348 53.2844C732.378 55.312 733.521 58.0612 733.524 60.9286V76.3752C733.521 79.2429 732.379 81.9924 730.348 84.0205C728.317 86.0486 725.563 87.1898 722.691 87.1938ZM707.215 54.37C705.474 54.3724 703.804 55.0641 702.573 56.2936C701.341 57.5231 700.648 59.1899 700.646 60.9286V76.3752C700.647 78.1144 701.34 79.782 702.572 81.0122C703.803 82.2423 705.473 82.9345 707.215 82.9369H722.691C724.433 82.9345 726.103 82.2423 727.334 81.0122C728.566 79.782 729.259 78.1144 729.26 76.3752V60.9286C729.258 59.1899 728.565 57.5231 727.333 56.2936C726.102 55.0641 724.432 54.3724 722.691 54.37H707.215Z" fill="#9EC8FF"/>
</g>
<path d="M715.919 78.1995H715.831C715.566 78.1864 715.306 78.1156 715.071 77.9922C714.836 77.8688 714.631 77.6957 714.469 77.485L703.35 63.0054C703.068 62.6206 702.949 62.1412 703.017 61.6696C703.085 61.198 703.335 60.7717 703.713 60.4818C704.092 60.1919 704.569 60.0614 705.043 60.1182C705.517 60.175 705.95 60.4145 706.249 60.7857L716.056 73.5564L741.661 46.1693C741.825 45.9918 742.021 45.8483 742.24 45.7471C742.459 45.6459 742.696 45.589 742.937 45.5797C743.179 45.5704 743.419 45.6089 743.645 45.693C743.872 45.777 744.079 45.9049 744.255 46.0694C744.431 46.2338 744.573 46.4315 744.673 46.651C744.772 46.8706 744.827 47.1076 744.835 47.3484C744.842 47.5892 744.801 47.8291 744.715 48.0541C744.629 48.2791 744.499 48.4849 744.333 48.6596L717.256 77.6218C717.085 77.8045 716.878 77.95 716.648 78.0494C716.418 78.1488 716.17 78.1999 715.919 78.1995Z" fill="#F37168"/>
<path d="M846.635 486.109C783.285 483.017 567.814 488.256 502.279 490.296C436.745 492.337 360.675 487.602 321.16 480.639C281.645 473.676 53.2391 481.247 63.6036 499.956C73.9682 518.666 165.37 508.33 269.021 515.856C372.672 523.382 605.784 514.916 658.365 515.856C710.946 516.795 759.178 513.977 826.93 510.213C894.681 506.448 883.354 487.9 846.635 486.109Z" fill="#CCE2FF"/>
<path d="M199.195 94.5735H66.7861V311.241H199.195V94.5735Z" fill="#99BBEB"/>
<path d="M194.843 98.9885H73.7217V302.983H194.843V98.9885Z" fill="white"/>
<path d="M109.95 180.794C114.519 171 122.224 167.865 134.895 167.865C149.983 167.865 157.816 173.339 160.037 181.266C133.018 181.636 109.95 180.794 109.95 180.794Z" fill="#9BD6E8"/>
<path d="M129.628 120.24C123.232 122.028 123.521 125.612 121.405 128.936C119.288 132.259 114.649 134.479 114.095 136.696C113.541 138.912 115.52 143.531 113.181 146.122C110.842 148.712 110.035 149.998 110.961 152.586C111.887 155.174 113.921 159.236 114.107 159.792C114.293 160.349 116.882 164.226 120.028 164.779C123.174 165.332 129.095 166.257 132.055 167.549C135.016 168.841 144.543 165.895 149.821 166.081C155.099 166.266 158.702 162.377 158.334 159.792C157.965 157.208 162.229 152.033 162.22 147.599C162.22 142.838 156.668 139.286 155.188 136.145C153.707 133.004 155.349 127.464 149.812 124.192C146.303 122.116 143.891 122.301 141.116 121.377C138.342 120.452 133.697 119.105 129.628 120.24Z" fill="#3A384D"/>
<path d="M137.398 175.683C135.954 177.811 134.894 177.9 133.328 175.683C132.08 173.919 129.628 169.906 129.628 167.884V147.606C129.63 146.626 130.021 145.688 130.714 144.996C131.408 144.304 132.348 143.914 133.328 143.911H137.398C138.379 143.913 139.319 144.302 140.013 144.995C140.708 145.687 141.099 146.626 141.101 147.606V167.887C141.101 169.915 138.695 173.773 137.398 175.683Z" fill="#F09959"/>
<path d="M137.398 143.908H133.328C132.347 143.91 131.407 144.301 130.713 144.994C130.02 145.687 129.63 146.626 129.628 147.606V165.697C134.196 167.151 138.369 164.262 141.101 161.009V147.606C141.099 146.625 140.709 145.686 140.015 144.993C139.32 144.3 138.379 143.91 137.398 143.908Z" fill="#E38540"/>
<path d="M135.363 160.851C142.159 160.851 147.668 153.356 147.668 144.112C147.668 134.867 142.159 127.373 135.363 127.373C128.568 127.373 123.059 134.867 123.059 144.112C123.059 153.356 128.568 160.851 135.363 160.851Z" fill="#F09959"/>
<path d="M141.101 130.791C133.329 143.908 121.855 142.613 121.855 142.613C121.855 142.613 122.133 125.248 131.245 124.323C140.358 123.399 145.725 127.06 147.576 133.077C149.428 139.095 147.576 143.075 147.576 143.075C145.641 141.452 144.119 139.394 143.136 137.07C142.298 135.032 141.618 132.932 141.101 130.791Z" fill="#3A384D"/>
<path d="M123.484 149.6C125.099 148.834 125.475 146.251 124.324 143.832C123.173 141.413 120.93 140.072 119.315 140.838C117.7 141.604 117.324 144.186 118.475 146.606C119.626 149.025 121.869 150.365 123.484 149.6Z" fill="#F09959"/>
<path d="M145.853 143.853C144.704 146.286 145.079 148.855 146.696 149.631C148.314 150.406 150.552 149.056 151.703 146.639C152.855 144.221 152.48 141.637 150.863 140.861C149.246 140.086 147.004 141.436 145.853 143.853Z" fill="#F09959"/>
<path d="M139.989 153.191C139.989 153.191 137.918 155.87 135.363 155.87C132.807 155.87 130.736 153.191 130.736 153.191H139.989Z" fill="white"/>
<path d="M150.013 207.348H118.947C118.007 207.321 117.114 206.929 116.459 206.255C115.803 205.582 115.437 204.68 115.437 203.741C115.437 202.801 115.803 201.899 116.459 201.226C117.114 200.552 118.007 200.16 118.947 200.133H150.013C150.953 200.16 151.846 200.552 152.501 201.226C153.157 201.899 153.523 202.801 153.523 203.741C153.523 204.68 153.157 205.582 152.501 206.255C151.846 206.929 150.953 207.321 150.013 207.348Z" fill="#99BBEB"/>
<path d="M155.703 218.431H113.246C112.305 218.404 111.413 218.012 110.757 217.339C110.102 216.665 109.735 215.763 109.735 214.824C109.735 213.885 110.102 212.982 110.757 212.309C111.413 211.635 112.305 211.243 113.246 211.216H155.703C156.643 211.243 157.536 211.635 158.191 212.309C158.846 212.982 159.213 213.885 159.213 214.824C159.213 215.763 158.846 216.665 158.191 217.339C157.536 218.012 156.643 218.404 155.703 218.431Z" fill="#99BBEB"/>
<path d="M186.111 258.285H82.8369C82.2946 258.265 81.7814 258.035 81.405 257.645C81.0286 257.254 80.8184 256.734 80.8184 256.192C80.8184 255.65 81.0286 255.129 81.405 254.739C81.7814 254.349 82.2946 254.119 82.8369 254.098H186.111C186.653 254.119 187.166 254.349 187.543 254.739C187.919 255.129 188.129 255.65 188.129 256.192C188.129 256.734 187.919 257.254 187.543 257.645C187.166 258.035 186.653 258.265 186.111 258.285Z" fill="#99BBEB"/>
<path d="M186.111 268.015H82.8369C82.2946 267.995 81.7814 267.765 81.405 267.375C81.0286 266.984 80.8184 266.464 80.8184 265.922C80.8184 265.38 81.0286 264.859 81.405 264.469C81.7814 264.079 82.2946 263.849 82.8369 263.828H186.111C186.653 263.849 187.166 264.079 187.543 264.469C187.919 264.859 188.129 265.38 188.129 265.922C188.129 266.464 187.919 266.984 187.543 267.375C187.166 267.765 186.653 267.995 186.111 268.015Z" fill="#99BBEB"/>
<path d="M186.111 277.745H82.8369C82.2946 277.725 81.7814 277.495 81.405 277.105C81.0286 276.715 80.8184 276.194 80.8184 275.652C80.8184 275.11 81.0286 274.589 81.405 274.199C81.7814 273.809 82.2946 273.579 82.8369 273.558H186.111C186.653 273.579 187.166 273.809 187.543 274.199C187.919 274.589 188.129 275.11 188.129 275.652C188.129 276.194 187.919 276.715 187.543 277.105C187.166 277.495 186.653 277.725 186.111 277.745Z" fill="#99BBEB"/>
<path d="M171.665 183.199H97.2832C96.2907 183.199 95.3391 182.805 94.6373 182.104C93.9355 181.403 93.5408 180.453 93.54 179.462V111.02C93.5408 110.029 93.9355 109.079 94.6373 108.379C95.3391 107.678 96.2907 107.284 97.2832 107.283H171.665C172.656 107.287 173.604 107.683 174.303 108.383C175.003 109.083 175.396 110.032 175.396 111.02V179.462C175.396 180.451 175.003 181.399 174.303 182.1C173.604 182.8 172.656 183.195 171.665 183.199ZM97.2832 110.324C97.099 110.326 96.9229 110.4 96.7926 110.531C96.6624 110.661 96.5881 110.836 96.5857 111.02V179.462C96.5881 179.646 96.6624 179.822 96.7926 179.952C96.9229 180.082 97.099 180.156 97.2832 180.159H171.665C171.85 180.156 172.026 180.082 172.156 179.952C172.286 179.822 172.36 179.646 172.363 179.462V111.02C172.36 110.836 172.286 110.661 172.156 110.531C172.026 110.4 171.85 110.326 171.665 110.324H97.2832Z" fill="#99BBEB"/>
<path d="M108.015 227.842L110.169 232.2L114.984 232.896L111.5 236.289L112.322 241.075L108.015 238.816L103.709 241.075L104.531 236.289L101.047 232.896L105.862 232.2L108.015 227.842Z" fill="#99BBEB"/>
<path d="M125.653 227.842L127.806 232.2L132.622 232.896L129.137 236.289L129.96 241.075L125.653 238.816L121.347 241.075L122.169 236.289L118.685 232.896L123.5 232.2L125.653 227.842Z" fill="#99BBEB"/>
<path d="M143.294 227.842L145.447 232.2L150.262 232.896L146.778 236.289L147.6 241.075L143.294 238.816L138.984 241.075L139.809 236.289L136.325 232.896L141.14 232.2L143.294 227.842Z" fill="#99BBEB"/>
<path d="M160.931 227.842L163.085 232.2L167.9 232.896L164.416 236.289L165.238 241.075L160.931 238.816L156.625 241.075L157.447 236.289L153.963 232.896L158.778 232.2L160.931 227.842Z" fill="#99BBEB"/>
<path d="M494.39 94.5735H361.981V311.241H494.39V94.5735Z" fill="#99BBEB"/>
<path d="M490.036 98.9885H368.914V302.983H490.036V98.9885Z" fill="white"/>
<path d="M410.898 143.008C410.898 152.711 416.749 168.37 430.555 167.868C444.362 167.367 447.416 152.44 447.952 148.229C448.489 144.018 410.898 143.008 410.898 143.008Z" fill="#7A4E34"/>
<path d="M405.146 180.794C409.714 171 417.42 167.865 430.09 167.865C445.175 167.865 453.009 173.339 455.229 181.266C428.214 181.636 405.146 180.794 405.146 180.794Z" fill="#D54A41"/>
<path d="M432.593 175.683C431.146 177.811 430.089 177.9 428.521 175.683C427.275 173.919 424.82 169.906 424.82 167.884V147.606C424.823 146.626 425.213 145.688 425.907 144.996C426.6 144.304 427.54 143.914 428.521 143.911H432.593C433.574 143.914 434.514 144.304 435.207 144.996C435.9 145.688 436.291 146.626 436.293 147.606V167.887C436.293 169.915 433.887 173.773 432.593 175.683Z" fill="#F09959"/>
<path d="M432.593 143.908H428.521C427.54 143.91 426.599 144.301 425.906 144.994C425.212 145.687 424.822 146.626 424.82 147.606V165.697C429.389 167.151 433.565 164.262 436.293 161.009V147.606C436.292 146.626 435.902 145.687 435.208 144.994C434.514 144.301 433.574 143.91 432.593 143.908Z" fill="#E38540"/>
<path d="M430.556 160.851C437.351 160.851 442.86 153.356 442.86 144.112C442.86 134.867 437.351 127.373 430.556 127.373C423.76 127.373 418.251 134.867 418.251 144.112C418.251 153.356 423.76 160.851 430.556 160.851Z" fill="#F09959"/>
<path d="M437.326 131.39C435.864 136.538 432.66 136.477 428.189 138.167C423.718 139.858 421.586 141.558 420.124 144.857C418.257 149.056 420.971 161.301 420.971 161.301C420.971 161.301 409.656 152.851 410.962 139.557C412.269 126.263 420.124 121.115 427.51 121.115C434.896 121.115 437.71 125.609 437.71 125.609C437.71 125.609 441.645 125.628 445.367 130.028C450.371 135.945 448.83 150.315 445.367 155.463C441.904 160.61 439.58 162.222 439.671 161.994C439.763 161.766 442.903 149.941 441.212 142.631C439.522 135.321 437.326 131.39 437.326 131.39Z" fill="#7A4E34"/>
<path d="M435.194 153.191C435.194 153.191 433.123 155.87 430.568 155.87C428.012 155.87 425.944 153.191 425.944 153.191H435.194Z" fill="white"/>
<path d="M445.205 207.348H414.139C413.656 207.362 413.174 207.279 412.724 207.104C412.273 206.929 411.862 206.666 411.515 206.329C411.168 205.993 410.893 205.591 410.704 205.146C410.516 204.701 410.419 204.223 410.419 203.74C410.419 203.258 410.516 202.78 410.704 202.335C410.893 201.89 411.168 201.488 411.515 201.152C411.862 200.815 412.273 200.552 412.724 200.377C413.174 200.202 413.656 200.119 414.139 200.133H445.205C446.146 200.16 447.038 200.552 447.694 201.226C448.349 201.899 448.716 202.801 448.716 203.74C448.716 204.68 448.349 205.582 447.694 206.255C447.038 206.929 446.146 207.321 445.205 207.348Z" fill="#99BBEB"/>
<path d="M450.895 218.431H408.441C407.957 218.445 407.476 218.362 407.025 218.187C406.575 218.012 406.164 217.749 405.817 217.413C405.47 217.076 405.194 216.674 405.006 216.229C404.818 215.784 404.721 215.306 404.721 214.824C404.721 214.341 404.818 213.863 405.006 213.418C405.194 212.974 405.47 212.571 405.817 212.235C406.164 211.898 406.575 211.635 407.025 211.46C407.476 211.285 407.957 211.202 408.441 211.216H450.895C451.835 211.243 452.728 211.635 453.383 212.309C454.039 212.982 454.405 213.885 454.405 214.824C454.405 215.763 454.039 216.665 453.383 217.338C452.728 218.012 451.835 218.404 450.895 218.431Z" fill="#99BBEB"/>
<path d="M481.304 258.285H378.033C377.751 258.296 377.469 258.25 377.206 258.149C376.942 258.049 376.701 257.897 376.498 257.701C376.294 257.506 376.132 257.271 376.022 257.012C375.911 256.753 375.854 256.474 375.854 256.192C375.854 255.91 375.911 255.631 376.022 255.372C376.132 255.112 376.294 254.878 376.498 254.682C376.701 254.487 376.942 254.334 377.206 254.234C377.469 254.134 377.751 254.088 378.033 254.098H481.304C481.586 254.088 481.867 254.134 482.131 254.234C482.395 254.334 482.635 254.487 482.839 254.682C483.042 254.878 483.204 255.112 483.314 255.372C483.425 255.631 483.482 255.91 483.482 256.192C483.482 256.474 483.425 256.753 483.314 257.012C483.204 257.271 483.042 257.506 482.839 257.701C482.635 257.897 482.395 258.049 482.131 258.149C481.867 258.25 481.586 258.296 481.304 258.285Z" fill="#99BBEB"/>
<path d="M481.304 268.015H378.033C377.751 268.026 377.469 267.98 377.206 267.88C376.942 267.779 376.701 267.627 376.498 267.431C376.294 267.236 376.132 267.001 376.022 266.742C375.911 266.483 375.854 266.204 375.854 265.922C375.854 265.64 375.911 265.361 376.022 265.102C376.132 264.842 376.294 264.608 376.498 264.413C376.701 264.217 376.942 264.065 377.206 263.964C377.469 263.864 377.751 263.818 378.033 263.828H481.304C481.586 263.818 481.867 263.864 482.131 263.964C482.395 264.065 482.635 264.217 482.839 264.413C483.042 264.608 483.204 264.842 483.314 265.102C483.425 265.361 483.482 265.64 483.482 265.922C483.482 266.204 483.425 266.483 483.314 266.742C483.204 267.001 483.042 267.236 482.839 267.431C482.635 267.627 482.395 267.779 482.131 267.88C481.867 267.98 481.586 268.026 481.304 268.015Z" fill="#99BBEB"/>
<path d="M481.304 277.745H378.033C377.751 277.756 377.469 277.71 377.206 277.61C376.942 277.509 376.701 277.357 376.498 277.161C376.294 276.966 376.132 276.731 376.022 276.472C375.911 276.213 375.854 275.934 375.854 275.652C375.854 275.37 375.911 275.091 376.022 274.832C376.132 274.573 376.294 274.338 376.498 274.143C376.701 273.947 376.942 273.795 377.206 273.694C377.469 273.594 377.751 273.548 378.033 273.558H481.304C481.586 273.548 481.867 273.594 482.131 273.694C482.395 273.795 482.635 273.947 482.839 274.143C483.042 274.338 483.204 274.573 483.314 274.832C483.425 275.091 483.482 275.37 483.482 275.652C483.482 275.934 483.425 276.213 483.314 276.472C483.204 276.731 483.042 276.966 482.839 277.161C482.635 277.357 482.395 277.509 482.131 277.61C481.867 277.71 481.586 277.756 481.304 277.745Z" fill="#99BBEB"/>
<path d="M466.87 183.199H392.476C391.483 183.199 390.531 182.805 389.83 182.104C389.128 181.403 388.733 180.453 388.732 179.462V111.02C388.733 110.029 389.128 109.079 389.83 108.379C390.531 107.678 391.483 107.284 392.476 107.283H466.87C467.862 107.284 468.814 107.678 469.516 108.379C470.218 109.079 470.612 110.029 470.613 111.02V179.462C470.612 180.453 470.218 181.403 469.516 182.104C468.814 182.805 467.862 183.199 466.87 183.199ZM392.476 110.324C392.291 110.326 392.115 110.4 391.985 110.531C391.855 110.661 391.78 110.836 391.778 111.02V179.462C391.78 179.646 391.855 179.822 391.985 179.952C392.115 180.082 392.291 180.156 392.476 180.159H466.87C467.054 180.156 467.23 180.082 467.361 179.952C467.491 179.822 467.565 179.646 467.567 179.462V111.02C467.565 110.836 467.491 110.661 467.361 110.531C467.23 110.4 467.054 110.326 466.87 110.324H392.476Z" fill="#99BBEB"/>
<path d="M403.209 227.842L405.362 232.2L410.177 232.896L406.693 236.289L407.515 241.075L403.209 238.816L398.902 241.075L399.725 236.289L396.24 232.896L401.056 232.2L403.209 227.842Z" fill="#99BBEB"/>
<path d="M420.849 227.842L423.002 232.2L427.817 232.896L424.333 236.289L425.155 241.075L420.849 238.816L416.539 241.075L417.364 236.289L413.877 232.896L418.695 232.2L420.849 227.842Z" fill="#99BBEB"/>
<path d="M438.487 227.842L440.64 232.2L445.456 232.896L441.971 236.289L442.794 241.075L438.487 238.816L434.18 241.075L435.003 236.289L431.519 232.896L436.334 232.2L438.487 227.842Z" fill="#99BBEB"/>
<path d="M456.128 227.842L458.281 232.2L463.096 232.896L459.612 236.289L460.434 241.075L456.128 238.816L451.818 241.075L452.641 236.289L449.156 232.896L453.972 232.2L456.128 227.842Z" fill="#99BBEB"/>
<path opacity="0.2" d="M376.866 309.076H167.9L182.681 95.3792H384.401L376.866 309.076Z" fill="#99BBEB"/>
<path d="M370.701 54.9415H189.851V350.876H370.701V54.9415Z" fill="#99BBEB"/>
<path d="M364.76 60.9712H199.323V339.598H364.76V60.9712Z" fill="white"/>
<path d="M266.624 119.495C266.508 119.151 263.612 102.552 263.273 96.0999C262.935 89.6476 273.665 88.7233 273.665 88.7233C273.665 88.7233 282.437 83.9981 288.787 86.4184C295.138 88.8388 299.447 92.9102 302.344 97.9729C305.24 103.036 299.807 118.847 299.807 118.847L266.624 119.495Z" fill="#2E2D3D"/>
<path d="M246.717 172.822C246.678 172.548 247.46 166.017 247.488 165.752C248.95 151.999 265.933 148.116 282.876 148.116C302.786 148.116 316.293 151.765 318.45 166.056C318.514 166.476 319.668 173.022 319.604 173.463C282.702 173.971 246.717 172.822 246.717 172.822Z" fill="#D5E1E8"/>
<path d="M286.296 158.804C284.322 161.711 282.876 161.845 280.734 158.804C279.032 156.399 273.349 150.898 273.349 148.128L275.682 120.458C275.686 119.122 276.219 117.841 277.166 116.895C278.112 115.949 279.395 115.416 280.734 115.411H286.296C287.636 115.415 288.919 115.948 289.867 116.894C290.814 117.84 291.348 119.121 291.352 120.458L292.436 148.128C292.436 150.905 288.065 156.198 286.296 158.804Z" fill="#F09959"/>
<path d="M286.296 115.405H280.734C279.395 115.41 278.112 115.943 277.166 116.889C276.219 117.834 275.686 119.115 275.682 120.452L273.656 145.006C279.9 146.991 288.33 142.956 292.058 138.514L291.352 120.452C291.348 119.115 290.814 117.833 289.867 116.888C288.919 115.942 287.636 115.409 286.296 115.405Z" fill="#E38540"/>
<path d="M264.434 150.147L273.348 166.597C273.348 166.597 278.118 162.678 278.581 163.447C279.044 164.217 277.734 173.913 277.734 173.913C277.734 173.913 288.355 174.056 288.818 173.609C289.28 173.162 286.661 163.076 287.739 163.076C288.817 163.076 292.058 165.998 292.058 165.998L302.011 150.163L299.825 149.63L283.518 158.375L266.078 149.807L264.434 150.147Z" fill="#BDCCD4"/>
<path d="M274.628 157.728L281.249 162.161L279.196 173.931L288.123 173.436L285.894 162.727L291.382 157.728L288.806 155.301H277.205L274.628 157.728Z" fill="#D54A41"/>
<path d="M273.809 142.087L265.622 149.865C265.622 149.865 273.964 164.676 274.424 164.676C274.884 164.676 281.505 156.508 281.505 156.508L285.742 156.436L292.443 163.447L300.218 149.71L292.299 141.317C292.299 141.317 285.526 154.392 284.295 154.696C283.065 155 283.056 155.158 282.06 154.392C281.064 153.626 273.809 142.087 273.809 142.087Z" fill="#D5E1E8"/>
<path d="M283.515 138.547C292.797 138.547 300.321 128.311 300.321 115.685C300.321 103.058 292.797 92.822 283.515 92.822C274.233 92.822 266.709 103.058 266.709 115.685C266.709 128.311 274.233 138.547 283.515 138.547Z" fill="#F09959"/>
<path d="M268.43 115.332C270.001 118.637 269.486 122.164 267.278 123.21C265.07 124.256 262.009 122.426 260.438 119.121C258.866 115.815 259.381 112.291 261.586 111.245C263.791 110.199 266.858 112.03 268.43 115.332Z" fill="#F09959"/>
<path d="M297.833 115.332C296.262 118.637 296.776 122.164 298.981 123.21C301.186 124.256 304.25 122.426 305.822 119.121C307.394 115.815 306.882 112.291 304.674 111.245C302.466 110.199 299.417 112.03 297.833 115.332Z" fill="#F09959"/>
<path d="M290.971 125.068C290.971 125.068 287.621 130.465 283.515 130.465C279.41 130.465 276.06 125.068 276.06 125.068H290.971Z" fill="white"/>
<path d="M273.656 100.132C280.582 95.291 283.707 96.0999 288.885 104.051C294.062 112.002 300.315 112.145 300.315 112.145L301.122 103.899C301.122 103.899 293.383 88.9513 282.994 90.9125C272.605 92.8737 266.7 102.209 266.7 102.209C266.7 102.209 266.194 119.704 267.644 120.303C269.094 120.902 269.258 114.654 270.297 113.386C271.335 112.118 269.258 106.125 270.644 103.352C272.03 100.579 273.656 100.132 273.656 100.132Z" fill="#2E2D3D"/>
<path d="M295.936 109.123C298.354 111.765 297.437 122.262 298.707 122.146C299.977 122.031 300.44 112.112 300.093 111.081C299.746 110.05 295.936 109.123 295.936 109.123Z" fill="#2E2D3D"/>
<path d="M320.902 208.972H243.699C242.411 208.94 241.187 208.407 240.288 207.486C239.388 206.566 238.885 205.331 238.885 204.045C238.885 202.759 239.388 201.524 240.288 200.603C241.187 199.682 242.411 199.149 243.699 199.117H320.902C321.56 199.101 322.215 199.216 322.828 199.457C323.441 199.697 324 200.057 324.472 200.516C324.943 200.976 325.318 201.524 325.574 202.13C325.83 202.736 325.961 203.387 325.961 204.045C325.961 204.702 325.83 205.353 325.574 205.959C325.318 206.565 324.943 207.114 324.472 207.573C324 208.032 323.441 208.392 322.828 208.633C322.215 208.873 321.56 208.988 320.902 208.972Z" fill="#99BBEB"/>
<path d="M311.295 224.111H253.308C252.649 224.128 251.994 224.012 251.381 223.772C250.768 223.532 250.209 223.171 249.738 222.712C249.266 222.253 248.892 221.704 248.636 221.098C248.38 220.493 248.248 219.842 248.248 219.184C248.248 218.526 248.38 217.876 248.636 217.27C248.892 216.664 249.266 216.115 249.738 215.656C250.209 215.197 250.768 214.836 251.381 214.596C251.994 214.356 252.649 214.24 253.308 214.257H311.295C312.583 214.289 313.807 214.822 314.706 215.742C315.606 216.663 316.109 217.898 316.109 219.184C316.109 220.47 315.606 221.705 314.706 222.626C313.807 223.546 312.583 224.079 311.295 224.111Z" fill="#99BBEB"/>
<path d="M352.83 278.554H211.774C211.398 278.554 211.026 278.48 210.678 278.337C210.331 278.193 210.016 277.983 209.75 277.717C209.484 277.452 209.273 277.137 209.129 276.79C208.985 276.443 208.911 276.071 208.911 275.696C208.911 275.321 208.985 274.949 209.129 274.602C209.273 274.255 209.484 273.94 209.75 273.675C210.016 273.41 210.331 273.199 210.678 273.055C211.026 272.912 211.398 272.838 211.774 272.838H352.83C353.206 272.838 353.578 272.912 353.925 273.055C354.273 273.199 354.588 273.41 354.854 273.675C355.12 273.94 355.331 274.255 355.475 274.602C355.619 274.949 355.693 275.321 355.693 275.696C355.693 276.071 355.619 276.443 355.475 276.79C355.331 277.137 355.12 277.452 354.854 277.717C354.588 277.983 354.273 278.193 353.925 278.337C353.578 278.48 353.206 278.554 352.83 278.554Z" fill="#99BBEB"/>
<path d="M352.83 291.842H211.774C211.015 291.842 210.287 291.541 209.75 291.005C209.213 290.469 208.911 289.742 208.911 288.984C208.911 288.226 209.213 287.499 209.75 286.963C210.287 286.427 211.015 286.125 211.774 286.125H352.83C353.589 286.125 354.317 286.427 354.854 286.963C355.391 287.499 355.693 288.226 355.693 288.984C355.693 289.742 355.391 290.469 354.854 291.005C354.317 291.541 353.589 291.842 352.83 291.842Z" fill="#99BBEB"/>
<path d="M352.829 305.133H211.774C211.03 305.108 210.325 304.796 209.808 304.263C209.29 303.729 209.001 303.016 209.001 302.273C209.001 301.53 209.29 300.817 209.808 300.283C210.325 299.749 211.03 299.437 211.774 299.413H352.829C353.573 299.437 354.278 299.749 354.795 300.283C355.312 300.817 355.602 301.53 355.602 302.273C355.602 303.016 355.312 303.729 354.795 304.263C354.278 304.796 353.573 305.108 352.829 305.133Z" fill="#99BBEB"/>
<path d="M333.1 175.434H231.501C230.29 175.434 229.127 174.953 228.271 174.098C227.414 173.242 226.933 172.082 226.933 170.873V77.4029C226.933 76.1933 227.414 75.0331 228.271 74.1778C229.127 73.3225 230.29 72.8419 231.501 72.8419H333.1C334.311 72.8419 335.473 73.3225 336.33 74.1778C337.187 75.0331 337.668 76.1933 337.668 77.4029V170.885C337.665 172.092 337.182 173.249 336.326 174.102C335.469 174.955 334.309 175.434 333.1 175.434ZM231.501 75.8947C231.097 75.8947 230.71 76.0549 230.424 76.34C230.139 76.6252 229.978 77.0118 229.978 77.4151V170.885C229.978 171.288 230.139 171.675 230.424 171.96C230.71 172.245 231.097 172.405 231.501 172.405H333.1C333.504 172.405 333.891 172.245 334.177 171.96C334.462 171.675 334.623 171.288 334.623 170.885V77.4029C334.623 76.9997 334.462 76.613 334.177 76.3279C333.891 76.0428 333.504 75.8826 333.1 75.8826L231.501 75.8947Z" fill="#99BBEB"/>
<path d="M233.925 236.964L236.867 242.915L243.443 243.867L238.685 248.5L239.809 255.038L233.925 251.952L228.044 255.038L229.165 248.5L224.407 243.867L230.983 242.915L233.925 236.964Z" fill="#99BBEB"/>
<path d="M258.017 236.964L260.959 242.915L267.535 243.867L262.777 248.5L263.901 255.038L258.017 251.952L252.136 255.038L253.259 248.5L248.499 243.867L255.078 242.915L258.017 236.964Z" fill="#99BBEB"/>
<path d="M282.108 236.964L285.05 242.915L291.629 243.867L286.868 248.5L287.992 255.038L282.108 251.952L276.226 255.038L277.35 248.5L272.59 243.867L279.169 242.915L282.108 236.964Z" fill="#99BBEB"/>
<path d="M306.203 236.964L309.142 242.915L315.72 243.867L310.96 248.5L312.084 255.038L306.203 251.952L300.318 255.038L301.442 248.5L296.682 243.867L303.26 242.915L306.203 236.964Z" fill="#99BBEB"/>
<path d="M330.675 236.964L333.617 242.915L340.196 243.867L335.435 248.5L336.559 255.038L330.675 251.952L324.794 255.038L325.918 248.5L321.157 243.867L327.736 242.915L330.675 236.964Z" fill="#99BBEB"/>
<path d="M661.161 332.544H429.087C427.693 332.544 426.562 333.673 426.562 335.065V338.844C426.562 340.236 427.693 341.365 429.087 341.365H661.161C662.555 341.365 663.686 340.236 663.686 338.844V335.065C663.686 333.673 662.555 332.544 661.161 332.544Z" fill="#2E5B9A"/>
<path d="M720.915 214.32C724.058 225.385 716.38 236.791 707.919 239.187C699.458 241.583 693.421 234.063 690.278 222.995C687.135 211.927 691.441 201.015 699.902 198.619C708.363 196.223 717.768 203.249 720.915 214.32Z" fill="#F09959"/>
<path d="M673.481 428.778C673.481 428.778 695.163 462.398 698.093 463.858C701.023 465.317 708.342 465.682 705.595 471.155C702.847 476.628 701.751 498.199 699.199 499.294C696.646 500.388 674.675 502.942 677.967 499.294C681.259 495.645 683.288 497.469 684.951 490.889C686.614 484.309 688.95 471.888 685.837 469.328C682.724 466.768 663.683 443.765 663.683 443.765L673.481 428.778Z" fill="#F09959"/>
<path d="M564.353 443.215C564.353 443.215 537.999 486.584 533.116 490.482C528.234 494.38 512.128 500.212 525.307 501.2C538.486 502.188 544.83 496.815 553.127 494.38C561.423 491.944 571.675 490.482 567.77 484.145C563.866 477.808 565.486 463.982 573.904 455.213C582.323 446.444 564.353 443.215 564.353 443.215Z" fill="#F09959"/>
<path d="M698.854 342.651C698.854 342.651 633.609 340.948 607.742 362.142C592.611 385.044 556.008 452.616 553.16 460.051C555.112 462 566.095 465.524 570.978 465.031C585.375 447.891 604.407 433.074 611.976 419.628C621.302 403.063 624.177 394.777 639.308 393.315C654.439 391.852 688.606 386.981 698.854 386.981C709.103 386.981 698.854 342.651 698.854 342.651Z" fill="#6791C9"/>
<path d="M755.751 501.319H752.331L727.807 399.165H735.33L755.751 501.319Z" fill="#2E5B9A"/>
<path d="M653.3 501.319H656.72L684.862 395.552H677.34L653.3 501.319Z" fill="#2E5B9A"/>
<path d="M736.025 338.191L698.094 344.728C698.094 344.728 647.684 345.19 624.643 349.474C603.68 353.373 600.582 377.144 624.643 409.895C638.306 428.498 649.859 443.342 673.481 460.066C679.49 455.663 681.79 453.985 683.45 443.397C681.741 441.056 677.316 426.409 675.942 423.542C662.873 396.273 645.433 386.358 645.181 383.673C648.111 378.923 722.752 408.436 737.59 391.077C751.771 374.496 736.025 338.191 736.025 338.191Z" fill="#75A1DE"/>
<path d="M737.599 252.456C727.609 251.055 717.437 252.952 707.919 259.83C699.604 268.292 690.196 282.246 690.772 305.266C691.503 334.502 686.24 336.378 691.731 344.418C714.632 353.844 753.796 394.421 744.574 350.937C737.895 319.448 759.221 295.977 742.019 261.049C740.618 258.206 738.866 255.448 737.599 252.456Z" fill="#F37168"/>
<path d="M690.765 316.268C690.32 331.51 688.164 335.998 689.811 340.778C699.147 341.73 716.224 345.458 720.491 351.421C725.364 358.241 730.255 359.217 727.977 354.181C725.699 349.146 719.678 342.001 728.952 317.475C738.226 292.949 742.618 276.38 733.52 259.325L690.765 316.268Z" fill="#D54A41"/>
<path d="M737.599 252.456C731.45 237.916 729.939 221.582 729.939 221.582L713.831 226.331C713.831 226.331 722.983 246.798 714.199 254.104C712.009 255.904 709.913 257.816 707.919 259.83C717.437 252.952 727.609 251.055 737.599 252.456Z" fill="#F09959"/>
<path d="M730.423 225.446C729.47 224.598 728.291 223.543 727.021 222.436L713.876 226.316L713.849 226.389C714.153 227.112 717.503 234.903 717.951 242.404C721.865 240.035 726.153 236.168 731.048 229.414C730.798 227.915 730.588 226.58 730.423 225.446Z" fill="#E38540"/>
<path d="M726.278 257.029C709.688 262.807 711.528 280.266 696.263 305.984C688.344 319.302 681.034 319.101 681.034 319.101C667.349 319.031 653.679 318.167 640.094 316.514C626.056 314.802 625.17 318.974 634.916 322.455C654.601 329.482 675.031 337.05 691.502 335.226C707.973 333.402 736.149 291.441 737.599 280.519C739.609 265.419 734.632 254.11 726.278 257.029Z" fill="#F09959"/>
<path d="M717.734 403.422C716.702 403.422 715.648 403.422 714.564 403.382C701.044 403.051 691.84 401.184 684.448 399.682C675.813 397.93 671.047 396.966 665.522 399.606C665.015 399.859 664.463 400.008 663.898 400.046C663.333 400.083 662.766 400.008 662.231 399.824C661.695 399.641 661.202 399.352 660.779 398.976C660.356 398.6 660.012 398.143 659.768 397.633C659.524 397.123 659.384 396.57 659.357 396.005C659.329 395.44 659.415 394.876 659.608 394.344C659.801 393.813 660.099 393.325 660.483 392.91C660.867 392.495 661.331 392.16 661.846 391.925C669.957 388.054 676.748 389.432 686.144 391.338C693.21 392.773 702.006 394.558 714.774 394.871C729.064 395.227 737.775 393.111 742.185 388.222C746.12 383.864 747.272 376.545 745.81 365.189C745.31 361.3 744.808 358.067 744.366 355.215C743.12 347.167 742.295 341.836 743.315 333.627C744.262 325.995 746.794 315.83 752.66 296.114C752.82 295.578 753.084 295.079 753.437 294.645C753.79 294.211 754.225 293.851 754.718 293.585C755.211 293.319 755.751 293.152 756.308 293.095C756.865 293.037 757.428 293.09 757.965 293.25C758.502 293.41 759.002 293.673 759.437 294.026C759.871 294.378 760.232 294.813 760.499 295.305C760.765 295.797 760.932 296.336 760.989 296.892C761.047 297.449 760.994 298.011 760.834 298.547C749.906 335.284 750.461 338.86 752.794 353.92C753.244 356.824 753.753 360.114 754.268 364.109C756.071 378.114 754.246 387.592 748.52 393.929C742.63 400.451 733.063 403.422 717.734 403.422Z" fill="#2E5B9A"/>
<path d="M566.159 479.766C548.671 488.305 539.256 493.2 533.649 492.732C532.327 492.622 531.231 492.489 530.299 492.343C524.061 496.025 514.105 500.373 525.307 501.2C538.486 502.176 544.83 496.815 553.127 494.38C561.423 491.944 571.675 490.482 567.77 484.145C566.978 482.792 566.433 481.31 566.159 479.766Z" fill="#D54A41"/>
<path d="M700 464.572C699.57 478.395 697.667 492.093 689.2 494.675C687.233 495.295 685.154 495.481 683.108 495.219C681.774 496.864 680.151 496.882 677.967 499.3C674.675 502.948 696.637 500.397 699.199 499.3C701.76 498.202 702.854 476.644 705.595 471.161C707.852 466.664 703.314 465.615 700 464.572Z" fill="#D54A41"/>
<path d="M632.635 333.751H577.078C576.265 333.751 575.469 333.52 574.784 333.083C574.099 332.647 573.553 332.024 573.21 331.288L550.76 283.048C550.299 282.027 550.26 280.865 550.651 279.815C551.043 278.765 551.833 277.911 552.851 277.439C553.868 276.967 555.031 276.914 556.088 277.293C557.144 277.671 558.008 278.45 558.493 279.46L579.813 325.237H632.65C633.781 325.237 634.865 325.686 635.665 326.484C636.465 327.283 636.914 328.365 636.914 329.494C636.914 330.623 636.465 331.706 635.665 332.504C634.865 333.303 633.781 333.751 632.65 333.751H632.635Z" fill="#75A1DE"/>
<path d="M644.26 317.009C633.034 316.848 621.899 310.168 616.368 311.141C610.837 312.114 592.779 324.623 595.048 325.11C597.317 325.596 611.641 318.189 612.128 318.077C612.615 317.964 615.71 323.206 623.354 325.134C630.999 327.062 623.409 319.412 647.111 326.56C662.534 331.206 644.26 317.009 644.26 317.009Z" fill="#F09959"/>
<path d="M735.948 239.187L737.599 252.456C737.599 252.456 723.074 253.32 715.844 257.379C708.613 261.438 697.947 273.184 697.947 273.184L706.664 258.203L707.919 248.619L735.948 239.187Z" fill="#F2E5DE"/>
<path d="M729.765 255.43C718.977 253.411 713.985 263.065 706.989 278.819C699.993 294.572 688.051 313.71 685.669 316.176C683.288 318.642 645.646 316.176 645.646 316.176C645.646 316.176 644.507 327.059 645.646 328.36C646.785 329.662 653.294 329.494 653.294 329.494C653.294 329.494 655.898 331.571 658.337 333.213C660.777 334.855 681.439 337.941 691.039 337.455C700.639 336.968 709.423 336.156 710.723 334.694C712.024 333.231 738.241 292.949 739.853 278.493C741.464 264.038 735.272 256.461 729.765 255.43Z" fill="#F2E5DE"/>
<path d="M697.947 189.162C677.541 190.135 680.742 220.785 680.742 220.785C680.742 220.785 686.042 222.418 697.146 220.59C696.294 217.3 696.659 208.896 696.659 208.896C696.659 208.896 697.947 215.716 699.586 219.861C701.934 220.934 704.59 219.982 709.104 218.891C711.425 228.621 717.976 232.744 722.459 234.152C727.417 235.708 732.662 237.563 738.519 234.641C744.376 231.719 741.157 201.829 738.044 195.821C733.378 186.799 725.618 178.727 712.195 182.99C705.464 185.127 697.947 189.162 697.947 189.162Z" fill="#303C60"/>
<path d="M733.436 225.559L741.778 237.721C741.778 237.721 732.531 260.788 759.425 271.235C780.486 279.421 778.003 293.84 768.489 308.331C758.974 322.823 774.181 335.518 774.181 335.518C774.181 335.518 776.502 319.454 796.966 316.423C824.868 312.287 832.768 274.89 811.926 256.19C794.682 240.713 789.434 253.53 777.76 239.643C766.085 225.756 744.05 235.137 744.05 235.137L735.973 223.375L733.436 225.559Z" fill="#303C60"/>
<path d="M821.527 293.861C821.398 293.861 821.271 293.827 821.159 293.764C821.047 293.7 820.954 293.608 820.888 293.497C820.822 293.387 820.786 293.261 820.784 293.132C820.782 293.003 820.813 292.876 820.875 292.763C827.88 279.962 822.166 264.455 819.288 260.253C818.984 259.809 818.679 259.34 818.374 258.878C815.545 254.472 812.024 248.984 793.235 245.609C788.712 244.794 785.048 242.109 781.171 239.266C773.158 233.395 764.079 226.742 744.349 235.806C744.173 235.867 743.982 235.86 743.811 235.787C743.64 235.713 743.504 235.579 743.427 235.41C743.351 235.241 743.34 235.05 743.398 234.874C743.456 234.698 743.578 234.55 743.74 234.459C764.261 225.033 773.718 231.959 782.061 238.074C785.798 240.811 789.325 243.398 793.512 244.155C812.935 247.646 816.66 253.435 819.635 258.088C819.94 258.553 820.22 259 820.513 259.422C823.528 263.825 829.525 280.072 822.179 293.478C822.114 293.594 822.019 293.691 821.905 293.758C821.79 293.825 821.66 293.861 821.527 293.861Z" fill="#303C60"/>
<path d="M728.98 238.025C727.529 238.016 726.08 237.9 724.646 237.679C717.507 236.608 707.928 232.558 707.179 209.814C707.17 209.714 707.182 209.612 707.213 209.517C707.245 209.421 707.296 209.333 707.363 209.257C707.43 209.182 707.511 209.121 707.603 209.078C707.694 209.035 707.794 209.011 707.895 209.008C707.996 209.004 708.096 209.022 708.19 209.058C708.284 209.095 708.37 209.151 708.442 209.222C708.513 209.293 708.57 209.377 708.608 209.471C708.646 209.564 708.664 209.665 708.662 209.766C708.966 219.14 710.834 226.079 714.199 230.384C716.754 233.653 720.144 235.508 724.859 236.213C731.468 237.201 735.848 235.982 737.876 232.592C737.977 232.422 738.142 232.3 738.333 232.252C738.524 232.203 738.727 232.232 738.897 232.333C739.066 232.434 739.189 232.598 739.237 232.789C739.286 232.98 739.256 233.183 739.155 233.352C737.295 236.462 733.88 238.025 728.98 238.025Z" fill="#303C60"/>
<path d="M451.438 501.319H456.92L478.249 338.549H466.188L451.438 501.319Z" fill="#2E5B9A"/>
<path d="M637.484 501.319H632.002L610.673 338.549H622.737L637.484 501.319Z" fill="#2E5B9A"/>
<path d="M100.438 465.393H110.053C112.085 465.393 113.732 463.749 113.732 461.72V453.814C113.732 451.786 112.085 450.141 110.053 450.141H100.438C98.406 450.141 96.7587 451.786 96.7587 453.814V461.72C96.7587 463.749 98.406 465.393 100.438 465.393Z" fill="#9EC8FF"/>
<path d="M69.5756 465.393H79.1909C81.2229 465.393 82.8701 463.749 82.8701 461.72V453.814C82.8701 451.786 81.2229 450.141 79.1909 450.141H69.5756C67.5437 450.141 65.8964 451.786 65.8964 453.814V461.72C65.8964 463.749 67.5437 465.393 69.5756 465.393Z" fill="#9EC8FF"/>
<path d="M38.7104 465.393H48.3257C50.3576 465.393 52.0049 463.749 52.0049 461.72V453.814C52.0049 451.786 50.3576 450.141 48.3257 450.141H38.7104C36.6784 450.141 35.0312 451.786 35.0312 453.814V461.72C35.0312 463.749 36.6784 465.393 38.7104 465.393Z" fill="#9EC8FF"/>
<path d="M917 171.575V181.177C917 182.151 916.612 183.086 915.922 183.775C915.232 184.463 914.297 184.85 913.321 184.85H905.402C904.426 184.85 903.49 184.463 902.8 183.775C902.11 183.086 901.723 182.151 901.723 181.177V171.575C901.725 170.602 902.114 169.67 902.804 168.984C903.493 168.297 904.428 167.911 905.402 167.911H913.321C914.295 167.91 915.23 168.296 915.92 168.983C916.61 169.67 916.998 170.602 917 171.575Z" fill="#9EC8FF"/>
<path d="M917 202.386V211.988C917 212.472 916.905 212.951 916.72 213.397C916.534 213.844 916.262 214.249 915.919 214.591C915.576 214.932 915.169 215.202 914.721 215.386C914.273 215.57 913.793 215.663 913.309 215.661H905.39C904.418 215.655 903.489 215.265 902.804 214.577C902.119 213.889 901.735 212.958 901.735 211.988V202.386C901.737 201.418 902.123 200.489 902.807 199.803C903.492 199.117 904.42 198.728 905.39 198.722H913.309C913.792 198.72 914.271 198.813 914.719 198.996C915.166 199.18 915.573 199.449 915.916 199.789C916.259 200.13 916.531 200.534 916.717 200.98C916.903 201.425 916.999 201.903 917 202.386Z" fill="#9EC8FF"/>
<path d="M917 233.197V242.799C917 243.773 916.613 244.706 915.923 245.394C915.234 246.083 914.299 246.469 913.324 246.469H905.405C904.429 246.469 903.493 246.082 902.803 245.393C902.113 244.705 901.726 243.77 901.726 242.796V233.194C901.728 232.222 902.117 231.291 902.806 230.605C903.495 229.918 904.429 229.533 905.402 229.533H913.321C914.295 229.532 915.23 229.918 915.92 230.605C916.61 231.292 916.998 232.224 917 233.197Z" fill="#9EC8FF"/>
</g>
<defs>
<clipPath id="clip0_22_106">
<rect width="917" height="519" fill="white"/>
</clipPath>
</defs>
</svg>
