<svg width="35" height="36" viewBox="0 0 35 36" fill="none" xmlns="http://www.w3.org/2000/svg">
<g clip-path="url(#clip0_210_4407)">
<g filter="url(#filter0_d_210_4407)">
<path d="M17.4781 3.88416C14.6482 3.88416 11.8819 4.73945 9.52891 6.34189C7.17594 7.94433 5.34203 10.2219 4.25907 12.8867C3.17612 15.5514 2.89277 18.4837 3.44486 21.3126C3.99694 24.1414 5.35966 26.7399 7.3607 28.7795C9.36173 30.819 11.9112 32.2079 14.6867 32.7706C17.4622 33.3333 20.3391 33.0445 22.9536 31.9407C25.5681 30.837 27.8027 28.9678 29.3749 26.5696C30.9471 24.1713 31.7863 21.3518 31.7863 18.4675C31.7863 16.5524 31.4162 14.656 30.6971 12.8867C29.9781 11.1174 28.9241 9.5097 27.5955 8.15552C26.2669 6.80133 24.6896 5.72713 22.9536 4.99425C21.2177 4.26136 19.3571 3.88416 17.4781 3.88416ZM23.2014 17.0092H18.9089V12.6342C18.9089 12.2474 18.7582 11.8764 18.4898 11.603C18.2215 11.3295 17.8576 11.1758 17.4781 11.1758C17.0986 11.1758 16.7347 11.3295 16.4664 11.603C16.198 11.8764 16.0473 12.2474 16.0473 12.6342V17.0092H11.7548C11.3754 17.0092 11.0114 17.1628 10.7431 17.4363C10.4748 17.7098 10.324 18.0807 10.324 18.4675C10.324 18.8543 10.4748 19.2252 10.7431 19.4987C11.0114 19.7722 11.3754 19.9258 11.7548 19.9258H16.0473V24.3008C16.0473 24.6876 16.198 25.0585 16.4664 25.332C16.7347 25.6055 17.0986 25.7592 17.4781 25.7592C17.8576 25.7592 18.2215 25.6055 18.4898 25.332C18.7582 25.0585 18.9089 24.6876 18.9089 24.3008V19.9258H23.2014C23.5809 19.9258 23.9448 19.7722 24.2131 19.4987C24.4814 19.2252 24.6322 18.8543 24.6322 18.4675C24.6322 18.0807 24.4814 17.7098 24.2131 17.4363C23.9448 17.1628 23.5809 17.0092 23.2014 17.0092Z" fill="url(#paint0_linear_210_4407)"/>
</g>
<rect x="16.0933" y="12.2686" width="2.76908" height="12.3979" rx="1.38454" fill="white"/>
<rect x="23.6768" y="17.083" width="2.76908" height="12.3979" rx="1.38454" transform="rotate(90 23.6768 17.083)" fill="white"/>
</g>
<defs>
<filter id="filter0_d_210_4407" x="-0.830078" y="0.884155" width="36.6162" height="37.1666" filterUnits="userSpaceOnUse" color-interpolation-filters="sRGB">
<feFlood flood-opacity="0" result="BackgroundImageFix"/>
<feColorMatrix in="SourceAlpha" type="matrix" values="0 0 0 0 0 0 0 0 0 0 0 0 0 0 0 0 0 0 127 0" result="hardAlpha"/>
<feOffset dy="1"/>
<feGaussianBlur stdDeviation="2"/>
<feComposite in2="hardAlpha" operator="out"/>
<feColorMatrix type="matrix" values="0 0 0 0 0.411765 0 0 0 0 0.690196 0 0 0 0 0.85098 0 0 0 0.54 0"/>
<feBlend mode="normal" in2="BackgroundImageFix" result="effect1_dropShadow_210_4407"/>
<feBlend mode="normal" in="SourceGraphic" in2="effect1_dropShadow_210_4407" result="shape"/>
</filter>
<linearGradient id="paint0_linear_210_4407" x1="17.4781" y1="3.88416" x2="17.4781" y2="33.0508" gradientUnits="userSpaceOnUse">
<stop stop-color="#7BCDFC"/>
<stop offset="1" stop-color="#223E4E"/>
</linearGradient>
<clipPath id="clip0_210_4407">
<rect width="34.3396" height="35" fill="white" transform="translate(0.308105 0.967529)"/>
</clipPath>
</defs>
</svg>
