<svg width="92" height="80" viewBox="0 0 92 80" fill="none" xmlns="http://www.w3.org/2000/svg">
<path d="M66.979 17.827V55.0813C74.7428 52.3866 80.3236 45.0752 80.3236 36.4447C80.3236 27.8143 74.7428 20.5217 66.979 17.827Z" fill="#B4E6DD"/>
<path d="M16.3149 49.5601L20.9656 76.5633C21.3073 78.3346 22.8829 79.6348 24.7052 79.6348C26.5275 79.6348 28.103 78.3535 28.4447 76.5633L33.0954 49.5601H16.3149Z" fill="#DB7767"/>
<path d="M13.6952 23.3671C6.40597 23.3671 0.502441 29.2275 0.502441 36.4635C0.502441 43.6996 6.40597 49.56 13.6952 49.56H16.3148V23.3671H13.6952V23.3671Z" fill="#D2F0EA"/>
<path d="M33.1143 49.56L68.6303 69.6475V3.29834L33.1143 23.367V49.56Z" fill="#D2F0EA"/>
<path d="M68.6304 0.679077C67.0359 0.679077 65.7451 1.96046 65.7451 3.54334V69.4026C65.7451 70.9855 67.0359 72.2669 68.6304 72.2669C70.225 72.2669 71.5158 70.9855 71.5158 69.4026V3.54334C71.5158 1.96046 70.225 0.679077 68.6304 0.679077Z" fill="#F38E7A"/>
<path d="M90.6307 35.4836H83.9109C83.3604 35.4836 82.9238 35.9171 82.9238 36.4635C82.9238 37.01 83.3604 37.4434 83.9109 37.4434H90.6307C91.1812 37.4434 91.6178 37.01 91.6178 36.4635C91.6178 35.9171 91.1812 35.4836 90.6307 35.4836Z" fill="#D2F0EA"/>
<path d="M82.639 45.2636C82.2593 44.8867 81.6329 44.8867 81.2343 45.2636C80.8357 45.6405 80.8546 46.2623 81.2343 46.6581L85.9799 51.369C86.3595 51.7459 86.986 51.7459 87.3846 51.369C87.7642 50.9921 87.7642 50.3703 87.3846 49.9746L82.639 45.2636Z" fill="#D2F0EA"/>
<path d="M82.6387 27.6635L87.3843 22.9525C87.7639 22.5756 87.7639 21.9538 87.3843 21.558C87.0046 21.1812 86.3782 21.1812 85.9796 21.558L81.234 26.269C80.8543 26.6459 80.8543 27.2677 81.234 27.6635C81.6136 28.0592 82.24 28.0592 82.6387 27.6635Z" fill="#D2F0EA"/>
<path d="M10.0315 28.7188C9.48103 28.7188 9.04443 29.1522 9.04443 29.6986C9.04443 30.2451 9.48103 30.6785 10.0315 30.6785H16.7513V28.7188H10.0315Z" fill="#B4E6DD"/>
<path d="M10.0315 33.2224C9.48103 33.2224 9.04443 33.6558 9.04443 34.2023C9.04443 34.7488 9.48103 35.1822 10.0315 35.1822H16.7513V33.2224H10.0315Z" fill="#B4E6DD"/>
<path d="M10.0315 37.745C9.48103 37.745 9.04443 38.1784 9.04443 38.7249C9.04443 39.2713 9.48103 39.7048 10.0315 39.7048H16.7513V37.745H10.0315Z" fill="#B4E6DD"/>
<path d="M10.0315 42.2487C9.48103 42.2487 9.04443 42.6821 9.04443 43.2285C9.04443 43.775 9.48103 44.2084 10.0315 44.2084H16.7513V42.2487H10.0315V42.2487Z" fill="#B4E6DD"/>
<path d="M33.1144 23.3671H16.3149V49.56H33.1144V23.3671Z" fill="#F38E7A"/>
</svg>
