<svg width="106" height="83" viewBox="0 0 106 83" fill="none" xmlns="http://www.w3.org/2000/svg">
<path d="M82.933 71.7995L79.1822 49.5523H79.1713C78.6504 46.544 76.5631 43.4287 73.0094 42.4429C72.9655 42.4306 72.9217 42.4212 72.8766 42.4148L64.1256 41.1137C64.072 41.1057 63.9577 41.1014 63.9029 41.1014C63.3494 41.1014 62.8825 41.5103 62.8151 42.0551C62.3492 45.8038 59.221 48.7472 55.1957 49.5523H50.8037C46.7779 48.7472 43.6497 45.8042 43.1849 42.0551C43.1163 41.4945 42.6068 41.0729 42.0692 41.102C42.0049 41.0983 41.9418 41.1036 41.8744 41.1137L33.1234 42.4148C33.0785 42.4212 33.0345 42.4308 32.9906 42.4429C29.4367 43.4287 27.3494 46.5442 26.8287 49.5523H26.8178L23.067 71.7995C22.291 75.8394 25.4169 79.5822 29.5674 79.5822H29.8424H76.1585H76.4335C80.5839 79.5822 83.7096 75.8394 82.933 71.7995Z" fill="#FF4F19"/>
<path d="M53.0004 40.0154C49.1711 40.0154 45.6969 38.3873 43.1336 35.7559C43.1318 37.333 43.0739 39.6091 42.6519 41.27C42.9287 41.4376 43.1436 41.713 43.1853 42.0553C43.7324 46.466 47.9515 49.7915 53.0004 49.7915C58.0482 49.7915 62.2673 46.4654 62.8155 42.0553C62.8581 41.7123 63.0682 41.4376 63.3492 41.2704C62.9271 39.6096 62.869 37.333 62.8672 35.7559C60.3039 38.3873 56.8295 40.0154 53.0004 40.0154Z" fill="#FDC88E"/>
<path d="M62.6532 35.9561C60.1112 38.4647 56.7274 40.0154 53.0004 40.0154C49.1711 40.0154 45.6969 38.3873 43.1336 35.7559C43.1318 37.333 43.0739 39.6091 42.6519 41.27C42.9287 41.4376 43.1436 41.713 43.1853 42.0553C43.4272 44.0049 44.3881 45.7407 45.8195 47.0728C52.4202 46.1517 59.9118 39.6938 62.6532 35.9561Z" fill="#FFB980"/>
<path d="M62.8661 12.8599H44.2295C41.2071 12.8599 38.748 15.2965 38.748 18.2911V24.8084C38.748 33.1936 45.1415 40.0154 52.9995 40.0154C60.8576 40.0154 67.2511 33.1936 67.2511 24.8084V17.2048C67.2513 14.8091 65.2847 12.8599 62.8661 12.8599Z" fill="#FFE1B2"/>
<path d="M60.6741 0.911621H46.4226C44.3607 0.911621 42.6274 2.32872 42.1607 4.23136C38.387 4.70666 35.46 7.90798 35.46 11.7739V17.205C35.46 20.0044 36.6594 22.6159 38.7488 24.4718V18.2913C38.7488 15.2967 41.2079 12.8601 44.2302 12.8601H62.8669C65.2852 12.8601 67.252 14.8093 67.252 17.205V24.4706C69.3418 22.6151 70.5409 20.0036 70.5409 17.205V10.6877C70.5407 5.2973 66.1148 0.911621 60.6741 0.911621Z" fill="#7E5449"/>
<path d="M72.8497 79.5822H33.1502C32.2367 79.5822 31.4961 78.8484 31.4961 77.9433V56.6367C31.4961 55.7315 32.2367 54.9977 33.1502 54.9977H72.8497C73.7633 54.9977 74.5039 55.7315 74.5039 56.6367V77.9433C74.5039 78.8484 73.7633 79.5822 72.8497 79.5822Z" fill="#D8DCE1"/>
<path d="M104.279 82.8602H1.72153C0.8072 82.8602 0.0673828 82.1263 0.0673828 81.2212C0.0673828 80.3161 0.8072 79.5822 1.72153 79.5822H104.279C105.193 79.5822 105.933 80.3161 105.933 81.2212C105.933 82.1263 105.193 82.8602 104.279 82.8602Z" fill="#9F6459"/>
<path d="M53.0002 71.3873C54.8273 71.3873 56.3085 69.9197 56.3085 68.1094C56.3085 66.299 54.8273 64.8314 53.0002 64.8314C51.1731 64.8314 49.6919 66.299 49.6919 68.1094C49.6919 69.9197 51.1731 71.3873 53.0002 71.3873Z" fill="white"/>
</svg>
