<svg width="75" height="75" viewBox="0 0 75 75" fill="none" xmlns="http://www.w3.org/2000/svg">
<g clip-path="url(#clip0_203_4216)">
<path d="M52.8726 11.1572V15.2231L55.3121 13.5967C55.3121 12.2494 54.2199 11.1572 52.8726 11.1572Z" fill="#D5D5D5"/>
<path d="M20.3452 13.5967L24.4112 15.2231L22.7848 11.1572C21.4374 11.1572 20.3452 12.2494 20.3452 13.5967Z" fill="#D5D5D5"/>
<path d="M52.8726 5.46478H50.4331V16.8494H52.8726V5.46478Z" fill="#D5D5D5"/>
<path d="M25.2242 5.46478H22.7847V16.8494H25.2242V5.46478Z" fill="#D5D5D5"/>
<path d="M0.828613 31.8933V36.7724C0.828613 39.4559 3.02419 44.9043 5.7077 44.9043L69.9495 64.8274L74.8286 59.9483V31.8933H0.828613Z" fill="#A77C77"/>
<path d="M5.7077 41.6517C3.02419 41.6517 0.828613 39.4561 0.828613 36.7726V59.9485L15.466 74.5857H60.1914L69.9497 64.8275V41.6517H5.7077Z" fill="#BA9894"/>
<path d="M69.9494 13.5967H65.0703V36.7726H69.9494C72.6329 36.7726 74.8285 34.577 74.8285 31.8935V18.4758C74.8285 15.7923 72.6329 13.5967 69.9494 13.5967Z" fill="#81433D"/>
<path d="M69.9495 31.8933V18.4758C69.9495 15.7923 67.7539 13.5967 65.0704 13.5967H5.7077C3.02419 13.5967 0.828613 15.7923 0.828613 18.4758V31.8933C0.828613 34.5768 3.02419 36.7724 5.7077 36.7724H65.0703C67.7539 36.7726 69.9495 34.5768 69.9495 31.8933Z" fill="#945F5A"/>
<path d="M47.9933 0.585693H43.1143L47.9933 5.46478H52.8724C52.8724 2.78127 50.6769 0.585693 47.9933 0.585693Z" fill="#61322E"/>
<path d="M43.1143 0.585693H27.6638C24.9802 0.585693 22.7847 2.78127 22.7847 5.46478H47.9935C47.9935 2.78127 45.7978 0.585693 43.1143 0.585693Z" fill="#81433D"/>
<path d="M69.9494 60.7906L65.0703 74.5857H69.9494C72.6329 74.5857 74.8285 72.3901 74.8285 69.7066V59.9483C73.1197 59.9483 71.4774 60.2462 69.9494 60.7906Z" fill="#61322E"/>
<path d="M69.9497 69.7066V60.7906C64.2793 62.8116 60.1914 68.244 60.1914 74.5857H65.0705C67.7541 74.5857 69.9497 72.3901 69.9497 69.7066Z" fill="#81433D"/>
<path d="M0.828613 59.9483V69.7066C0.828613 72.3901 3.02419 74.5857 5.7077 74.5857H15.4659C15.466 66.5352 8.87915 59.9483 0.828613 59.9483Z" fill="#81433D"/>
<path d="M40.2679 51.4098V41.3442H35.3889V51.4098H30.5098V56.289H35.3889V61.1681H40.2679V56.289H45.147V51.4098H40.2679Z" fill="#EAEAEA"/>
<path d="M37.8282 27.0142L33.9248 36.7724L37.8282 46.5307C43.2174 46.5307 47.5865 42.1618 47.5865 36.7725C47.5865 31.3833 43.2174 27.0142 37.8282 27.0142Z" fill="#EAEAEA"/>
<path d="M28.0703 36.7725C28.0703 42.1618 32.4392 46.5307 37.8285 46.5307V27.0142C32.4392 27.0142 28.0703 31.3831 28.0703 36.7725Z" fill="white"/>
<path d="M6.92736 20.9155C7.60106 20.9155 8.14721 20.3693 8.14721 19.6956C8.14721 19.0219 7.60106 18.4758 6.92736 18.4758C6.25366 18.4758 5.70752 19.0219 5.70752 19.6956C5.70752 20.3693 6.25366 20.9155 6.92736 20.9155Z" fill="#81433D"/>
<path d="M11.8063 25.7945C12.48 25.7945 13.0261 25.2484 13.0261 24.5747C13.0261 23.901 12.48 23.3549 11.8063 23.3549C11.1326 23.3549 10.5864 23.901 10.5864 24.5747C10.5864 25.2484 11.1326 25.7945 11.8063 25.7945Z" fill="#81433D"/>
<path d="M63.8507 57.5089C64.5244 57.5089 65.0705 56.9628 65.0705 56.2891C65.0705 55.6154 64.5244 55.0692 63.8507 55.0692C63.177 55.0692 62.6309 55.6154 62.6309 56.2891C62.6309 56.9628 63.177 57.5089 63.8507 57.5089Z" fill="#A77C77"/>
<path d="M37.8287 40.4318C37.1549 40.4318 36.6089 39.8856 36.6089 39.212V34.3329C36.6089 33.6592 37.1549 33.113 37.8287 33.113C38.5025 33.113 39.0486 33.6592 39.0486 34.3329V39.212C39.0486 39.8858 38.5025 40.4318 37.8287 40.4318Z" fill="#959595"/>
</g>
<defs>
<clipPath id="clip0_203_4216">
<rect width="74" height="74" fill="white" transform="translate(0.828613 0.585693)"/>
</clipPath>
</defs>
</svg>
