<svg width="24" height="24" viewBox="0 0 24 24" fill="none" xmlns="http://www.w3.org/2000/svg">
<path fill-rule="evenodd" clip-rule="evenodd" d="M2.80385 5C2 6.3923 2 8.26154 2 12C2 15.7385 2 17.6077 2.80385 19C3.33046 19.9121 4.08788 20.6695 5 21.1962C6.3923 22 8.26154 22 12 22C15.7385 22 17.6077 22 19 21.1962C19.9121 20.6695 20.6695 19.9121 21.1962 19C22 17.6077 22 15.7385 22 12C22 8.26154 22 6.3923 21.1962 5C20.6695 4.08788 19.9121 3.33046 19 2.80385C17.6077 2 15.7385 2 12 2C8.26154 2 6.3923 2 5 2.80385C4.08788 3.33046 3.33046 4.08788 2.80385 5Z" fill="#FF3A3A"/>
<path d="M16.2795 10.5553C16.2795 10.5553 15.9696 14.3991 15.7898 16.0182C15.7042 16.7915 15.2265 17.2447 14.444 17.2589C12.955 17.2858 11.4643 17.2875 9.97588 17.2561C9.22311 17.2407 8.7534 16.7818 8.66951 16.0222C8.48859 14.3888 8.1804 10.5553 8.1804 10.5553" stroke="white" stroke-width="1.25" stroke-linecap="round" stroke-linejoin="round"/>
<path d="M17.0684 8.71273H7.39014" stroke="white" stroke-width="1.25" stroke-linecap="round" stroke-linejoin="round"/>
<path d="M15.2037 8.71267C14.7556 8.71267 14.3698 8.39592 14.2819 7.95704L14.1433 7.26305C14.0577 6.94287 13.7677 6.72144 13.4373 6.72144H11.0214C10.691 6.72144 10.4011 6.94287 10.3155 7.26305L10.1768 7.95704C10.0889 8.39592 9.70308 8.71267 9.25507 8.71267" stroke="white" stroke-width="1.25" stroke-linecap="round" stroke-linejoin="round"/>
</svg>
