<svg width="20" height="20" viewBox="0 0 20 20" fill="none" xmlns="http://www.w3.org/2000/svg">
<path fill-rule="evenodd" clip-rule="evenodd" d="M0.803848 3C0 4.3923 0 6.26154 0 10C0 13.7385 0 15.6077 0.803848 17C1.33046 17.9121 2.08788 18.6695 3 19.1962C4.3923 20 6.26154 20 10 20C13.7385 20 15.6077 20 17 19.1962C17.9121 18.6695 18.6695 17.9121 19.1962 17C20 15.6077 20 13.7385 20 10C20 6.26154 20 4.3923 19.1962 3C18.6695 2.08788 17.9121 1.33046 17 0.803848C15.6077 0 13.7385 0 10 0C6.26154 0 4.3923 0 3 0.803848C2.08788 1.33046 1.33046 2.08788 0.803848 3Z" fill="#11AD88"/>
<path fill-rule="evenodd" clip-rule="evenodd" d="M8.50575 14.0507L14.2691 7.19138C14.4701 6.95217 14.4201 6.69016 14.3018 6.56381C14.0499 6.2947 13.8061 6.05425 13.6029 5.88359C13.3925 5.70679 13.0968 5.4964 12.7693 5.28189C12.6156 5.18117 12.3428 5.18166 12.1422 5.42039L6.38677 12.2703C6.12459 12.5823 6.00619 12.9567 6.03521 13.3106C6.07247 13.7649 6.12342 14.2564 6.18847 14.6575C6.5947 14.6524 7.08768 14.6179 7.54156 14.5763C7.89519 14.5439 8.24357 14.3627 8.50575 14.0507ZM13.5365 4.11078C12.7369 3.58701 11.6853 3.78795 11.0704 4.51978L5.3149 11.3697C4.83249 11.9438 4.5786 12.6777 4.6399 13.4251C4.72076 14.4111 4.87386 15.6992 5.13137 15.9156C5.38887 16.1319 6.68408 16.0607 7.66932 15.9705C8.4161 15.902 9.09521 15.5255 9.57762 14.9513L15.341 8.09199C15.9523 7.3644 15.9733 6.30064 15.3238 5.60694C15.0552 5.32008 14.7681 5.03401 14.5035 4.81172C14.231 4.5827 13.8822 4.33729 13.5365 4.11078Z" fill="white"/>
<path fill-rule="evenodd" clip-rule="evenodd" d="M11.2729 5.99995C10.6734 6.3613 10.6734 6.36138 10.6735 6.36146L10.6745 6.3632L10.6765 6.36654L10.6832 6.37736L10.7063 6.41463C10.7259 6.446 10.754 6.49009 10.7891 6.54368C10.8592 6.65042 10.959 6.79708 11.0785 6.95713C11.3014 7.25572 11.6506 7.68088 12.0391 7.93665C12.331 8.12889 12.6557 8.32601 12.9039 8.4732C13.0288 8.54724 13.1359 8.60958 13.212 8.65352L13.3014 8.70492L13.3257 8.71879L13.334 8.72351C13.334 8.72352 13.3347 8.72394 13.68 8.11499L13.334 8.72351C13.6703 8.91416 14.0983 8.79652 14.2889 8.4602C14.4796 8.12389 14.3615 7.69669 14.0252 7.50603M14.0252 7.50603L14.0183 7.50212L13.9963 7.48959L13.9122 7.44123C13.8399 7.39944 13.7375 7.33983 13.618 7.269C13.3776 7.12642 13.0743 6.94204 12.8089 6.76733C12.64 6.65615 12.4136 6.40529 12.2003 6.11959C12.1017 5.98751 12.0183 5.86496 11.9596 5.77553C11.9304 5.73103 11.9077 5.6953 11.8927 5.67136L11.8762 5.64485L11.8727 5.63904C11.8726 5.63894 11.8722 5.63825 11.8721 5.63815C11.6724 5.3074 11.2425 5.20095 10.9115 5.40043C10.5804 5.6 10.4739 6.03035 10.6735 6.36146L11.2729 5.99995" fill="white"/>
</svg>
