<svg width="21" height="20" viewBox="0 0 21 20" fill="none" xmlns="http://www.w3.org/2000/svg">
<path d="M18.4401 11C18.2201 11 17.9901 10.93 17.7701 10.88C17.3246 10.7818 16.8868 10.6515 16.4601 10.49C15.9962 10.3212 15.4862 10.33 15.0284 10.5146C14.5706 10.6992 14.1972 11.0466 13.9801 11.49L13.7601 11.94C12.7861 11.3982 11.8911 10.7252 11.1001 9.93999C10.3149 9.14901 9.64192 8.25399 9.1001 7.27999L9.5201 6.99999C9.96347 6.78291 10.3109 6.40952 10.4955 5.95168C10.6801 5.49384 10.6889 4.9839 10.5201 4.51999C10.3613 4.09241 10.231 3.65479 10.1301 3.20999C10.0801 2.98999 10.0401 2.75999 10.0101 2.52999C9.88867 1.82561 9.51973 1.18773 8.96972 0.731229C8.41972 0.274727 7.7248 0.029599 7.0101 0.0399902H4.0101C3.57913 0.0359436 3.15235 0.124804 2.75881 0.300521C2.36527 0.476238 2.01421 0.734686 1.72953 1.05827C1.44485 1.38186 1.23324 1.76298 1.10909 2.1757C0.984942 2.58842 0.95118 3.02305 1.0101 3.44999C1.54284 7.63937 3.45613 11.5319 6.44775 14.5126C9.43938 17.4934 13.3388 19.3925 17.5301 19.91H17.9101C18.6475 19.9111 19.3595 19.6405 19.9101 19.15C20.2265 18.867 20.4792 18.5202 20.6516 18.1323C20.8239 17.7444 20.9121 17.3244 20.9101 16.9V13.9C20.8979 13.2054 20.6449 12.5365 20.1944 12.0077C19.744 11.4788 19.1239 11.1226 18.4401 11ZM18.9401 17C18.9399 17.142 18.9095 17.2823 18.8509 17.4116C18.7923 17.5409 18.7068 17.6563 18.6001 17.75C18.4887 17.847 18.3581 17.9194 18.2168 17.9625C18.0755 18.0056 17.9267 18.0183 17.7801 18C14.035 17.5198 10.5563 15.8065 7.89282 13.1303C5.2293 10.4541 3.53251 6.96733 3.0701 3.21999C3.05419 3.07351 3.06813 2.92532 3.1111 2.78438C3.15407 2.64344 3.22517 2.51268 3.3201 2.39999C3.41381 2.29332 3.52916 2.20783 3.65848 2.14921C3.7878 2.09058 3.92812 2.06017 4.0701 2.05999H7.0701C7.30265 2.05482 7.52972 2.13087 7.71224 2.27506C7.89476 2.41925 8.02131 2.62256 8.0701 2.84999C8.1101 3.12332 8.1601 3.39332 8.2201 3.65999C8.33562 4.18713 8.48936 4.70517 8.6801 5.20999L7.2801 5.85999C7.1604 5.91491 7.05272 5.99294 6.96326 6.08959C6.87379 6.18623 6.8043 6.2996 6.75877 6.42318C6.71324 6.54677 6.69257 6.67812 6.69795 6.80971C6.70332 6.9413 6.73464 7.07054 6.7901 7.18999C8.2293 10.2727 10.7073 12.7508 13.7901 14.19C14.0336 14.29 14.3066 14.29 14.5501 14.19C14.6748 14.1454 14.7894 14.0764 14.8873 13.9872C14.9851 13.8979 15.0643 13.7901 15.1201 13.67L15.7401 12.27C16.2571 12.4549 16.7847 12.6085 17.3201 12.73C17.5868 12.79 17.8568 12.84 18.1301 12.88C18.3575 12.9288 18.5608 13.0553 18.705 13.2378C18.8492 13.4204 18.9253 13.6474 18.9201 13.88L18.9401 17Z" fill="black"/>
</svg>
